<svg xmlns="http://www.w3.org/2000/svg" version="1.1" xmlns:xlink="http://www.w3.org/1999/xlink" xmlns:svgjs="http://svgjs.dev/svgjs" width="1500" height="181" viewBox="0 0 1500 181"><g transform="matrix(1,0,0,1,-0.9090909090909918,-1.2842545087935662)"><svg viewBox="0 0 396 48" data-background-color="#ffffff" preserveAspectRatio="xMidYMid meet" height="181" width="1500" xmlns="http://www.w3.org/2000/svg" xmlns:xlink="http://www.w3.org/1999/xlink"><g id="tight-bounds" transform="matrix(1,0,0,1,0.2400000000000091,0.3405757813375203)"><svg viewBox="0 0 395.52 47.31884843732497" height="47.31884843732497" width="395.52"><g><svg viewBox="0 0 395.52 47.31884843732497" height="47.31884843732497" width="395.52"><g><svg viewBox="0 0 395.52 47.31884843732497" height="47.31884843732497" width="395.52"><g id="textblocktransform"><svg viewBox="0 0 395.52 47.31884843732497" height="47.31884843732497" width="395.52" id="textblock"><g><svg viewBox="0 0 395.52 47.31884843732497" height="47.31884843732497" width="395.52"><g transform="matrix(1,0,0,1,0,0)"><svg width="395.52" viewBox="2.76 -38.72 435.86 52.15" height="47.31884843732497" data-palette-color="#ec9131"><path d="M31.01-35.72L31.01-35.72 30.98-33.45Q30.98-30.1 30.88-27.49L30.88-27.49Q28.03-27.25 23.07-27.25L23.07-27.25 17.43-27.22 17.43-26.51 17.38-24.37Q17.38-23.51 17.46-22.71L17.46-22.71Q23.56-23.22 26.5-23.22 29.44-23.22 30.1-22.78L30.1-22.78 30.1-14.6Q30.1-13.79 29.79-13.53 29.47-13.26 28.81-13.26L28.81-13.26 28.49-13.26 27.17-13.31Q22.8-13.06 17.48-12.94L17.48-12.94 17.65-3.22 17.63-2.39 17.63-0.1Q17.63 0.63 17.19 0.68L17.19 0.68 3.22 0.81Q3.17 0.66 2.86 0.15L2.86 0.15Q2.76-1.46 2.76-2.59L2.76-2.59 2.91-36.55Q2.91-36.87 6.23-36.87L6.23-36.87 6.84-36.84 8.5-36.84 20.29-36.96 28.66-36.87 29.49-36.87 29.86-36.89Q30.54-36.89 30.77-36.58 31.01-36.28 31.01-35.72ZM32.39-38.48L47.48-38.53 47.51-31.84 32.47-31.84Q32.47-34.18 32.42-35.18L32.42-35.18 32.39-38.48ZM32.39-38.48L32.15-38.48 32.39-38.72 32.39-38.48ZM47.58-8.5L47.58-7.74 47.6-7.52 47.63-3.86Q47.63-2.86 47.53-1.46 47.43-0.07 47.36-0.02L47.36-0.02 46.92 0.02 38.03 0.02 37.01 0.12Q33.2 0.12 32.37 0.02L32.37 0.02 32.37-0.15 32.35-0.61 32.35-1.71Q32.35-6.52 32.49-9.69L32.49-9.69 32.76-28.49 32.76-29.22 34.67-29.25 35.08-29.22 35.79-29.22 36.4-29.2 36.72-29.22 38.47-29.22 38.84-29.25 47.17-29.15Q47.26-29.17 47.31-29.17 47.36-29.17 47.36-29.03L47.36-29.03 47.39-26.71Q47.41-24.39 47.48-20.5 47.56-16.6 47.56-14.99L47.56-14.99 47.53-11.94 47.53-10.64 47.6-9.35 47.6-8.59Q47.6-8.57 47.58-8.5L47.58-8.5ZM50.75-29.22L57.25-29.2 63.79-29.22Q63.91-28.71 64.23-27.61 64.55-26.51 64.84-25.42L64.84-25.42 65.3-23.58Q66.28-26.05 66.5-26.32L66.5-26.32 66.89-26.81Q69.36-30.27 74.46-30.27L74.46-30.27Q76.87-30.27 79.06-28.82 81.25-27.37 82.47-25.04 83.69-22.71 83.69-20.12L83.69-20.12Q83.69-19.82 83.61-19.65L83.61-19.65 83.61-4.64 83.64 0.02 69.36 0.02 69.31-12.18 69.4-14.67Q69.4-18.41 67.43-18.41L67.43-18.41Q65.3-18.41 65.3-14.87L65.3-14.87Q65.3-14.09 65.33-13.79L65.33-13.79 65.33-13.43 65.35-13.01 65.35 0 58.08 0.02 50.78 0.02 50.75-14.62 50.75-29.22ZM106.44-28.86L106.44-29 106.51-31.47 106.51-37.94 113.79-37.94 121.11-37.96Q121.11-37.96 121.14 0.15L121.14 0.15 108.68 0.15Q108.17-0.68 107.93-1.39L107.93-1.39 106.95-3.1Q104.61-1.03 102.54-0.07 100.48 0.88 97.48 0.88L97.48 0.88Q92.62 0.88 89.3-2.98 85.98-6.84 85.98-12.87L85.98-12.87Q85.98-16.85 86.88-20.39L86.88-20.39Q87.86-23.8 90.03-26.77 92.2-29.74 95.7-30.13L95.7-30.13 96.06-30.1 98.14-30.25Q101.12-30.25 104.9-27.64L104.9-27.64 105.41-27.32 105.39-27.34Q105.95-26.98 106.1-26.81L106.1-26.81 106.85-27.15Q106.44-28.39 106.44-28.86L106.44-28.86ZM101.21-13.99L101.21-13.99 101.19-13.13 101.19-12.45Q101.19-11.11 101.7-9.69L101.7-9.69 101.68-9.72Q101.85-8.98 102.65-7.85 103.46-6.71 104.29-6.71L104.29-6.71Q104.61-6.71 104.8-6.84L104.8-6.84Q107.34-7.93 107.34-13.67L107.34-13.67Q107.34-17.65 106.02-20.02L106.02-20.02Q105.22-21.48 104.25-21.48 103.29-21.48 102.56-20.02L102.56-20.02Q101.21-17.36 101.21-13.99ZM163.91 0.27L163.91 0.27Q163.88 0.59 162.56 0.59L162.56 0.59 160.32 0.59 158.8 0.61 157.31 0.61 154.95 0.63Q151.41 0.63 149.06 0.46L149.06 0.46Q148.99 0.44 148.89 0.17L148.89 0.17 148.77-0.34Q148.55-2.86 147.62-5.2L147.62-5.2 137.17-5.1Q137.07-4.69 136.54-2.64 136-0.59 135.73 0.46L135.73 0.46Q135.49 0.71 133.41 0.71L133.41 0.71 132.8 0.68 131.39 0.68 125.04 0.83 124.31 0.83 123.62 0.85 121.91 0.85Q121.74 0.68 121.55 0.42L121.55 0.42Q123.99-8.03 128.16-20.53L128.16-20.53 128.73-22.27 128.7-22.27 129.36-24.29Q129.68-25.27 131.18-29.71 132.68-34.16 133.06-35.45 133.44-36.74 133.51-36.79L133.51-36.79 137.56-36.79 146.23-36.91 148.57-36.79 150.5-36.91Q151.97-36.91 151.97-36.33L151.97-36.33Q154.41-29.52 158.49-16.72 162.56-3.93 163.08-2.34L163.08-2.34 163.42-1.12Q163.59-0.46 163.91 0.27ZM138.3-13.06L139.74-13.06 140.74-13.04 146.57-13.06Q146.21-15.97 146.01-17.33L146.01-17.33 145.08-21.51Q143.62-27.98 143.57-28.1 143.52-28.22 143.48-28.33 143.45-28.44 143.42-28.48 143.4-28.52 143.36-28.61 143.32-28.71 143.29-28.75 143.25-28.78 143.2-28.86L143.2-28.86Q143.03-29.15 142.49-29.37L142.49-29.37Q141.84-29.22 138.56-14.67L138.56-14.67 138.3-13.06ZM163.68-19.46L163.68-19.46Q164.27-25.02 165.64-27.83L165.64-27.83Q168.25-33.25 173.43-35.52L173.43-35.52Q178.04-37.55 183.46-37.55L183.46-37.55Q192.54-37.55 196.72-32.57L196.72-32.57Q199.23-29.61 199.62-25.22L199.62-25.22 199.84-22.92Q199.43-22.53 194.59-22.53L194.59-22.53 190.71-22.58 190.39-22.58 188.27-22.63 187.68-22.61 187.19-22.61Q186.51-22.61 186.16-24.61 185.8-26.61 185.08-27.26 184.36-27.91 183.41-27.91 182.46-27.91 181.74-27.56 181.02-27.22 180.55-26.75 180.09-26.27 179.77-25.39L179.77-25.39Q179.19-23.88 179.06-22.18 178.94-20.48 178.94-18.38L178.94-18.38 178.94-17.8 178.84-15.33Q178.84-8.59 182.65-8.45L182.65-8.45Q183.63-8.45 184.02-8.79L184.02-8.79Q185.07-9.72 185.85-12.52L185.85-12.52Q186.02-13.11 186.27-13.48L186.27-13.48 187.19-13.48 188.32-13.45 192.27-13.45 193.47-13.48 195.79-13.45 197.2-13.45 198.64-13.43 199.62-13.43Q199.91-13.4 200.04-12.92L200.04-12.92 199.96-12.11Q199.74-9.23 198.62-6.88L198.62-6.88Q196.55-2.59 192.09-0.5 187.63 1.59 182.31 1.59L182.31 1.59Q173.01 1.59 168.35-3.91 163.68-9.4 163.68-19.46ZM237.41-14.77L237.41-14.77Q237.36-14.53 237.36-14.48L237.36-14.48 237.36-14.28Q237.29-10.25 235.51-7.03L235.51-7.03 235.53-7.03Q233.04-3.22 228.59-1.17 224.13 0.88 219.81 0.88 215.49 0.88 212.64 0.04 209.8-0.81 207.38-2.42 204.97-4.03 203.79-5.52L203.79-5.52Q201.01-9.03 201.01-15.45L201.01-15.45Q201.01-15.67 201.08-15.82L201.08-15.82 201.08-16.21Q201.01-16.31 201.01-16.41L201.01-16.41 201.06-16.67 201.03-16.67Q201.5-20.95 202.84-22.29L202.84-22.29Q202.84-22.56 203.18-22.9L203.18-22.9 203.18-22.88 203.55-23.46Q206.43-27.15 210.14-28.52L210.14-28.52 211-28.83Q212.61-29.61 215.51-30L215.51-30 216.29-30.08Q216.46-30.1 216.99-30.13 217.51-30.15 217.73-30.22L217.73-30.22 218.78-30.2Q218.86-30.22 218.95-30.22 219.05-30.22 219.17-30.2L219.17-30.2 219.15-30.22Q219.3-30.15 219.59-30.15L219.59-30.15Q219.69-30.25 219.93-30.25L219.93-30.25Q225.23-30.25 228.94-28.08L228.94-28.08 229.43-27.86Q237.41-24.02 237.41-14.77ZM222.23-14.62L222.23-14.62Q222.13-19.48 220.83-21.19L220.83-21.19Q220.3-21.9 219.53-21.9 218.76-21.9 218.17-21.01 217.59-20.12 217.23-18.21 216.88-16.31 216.88-14.83 216.88-13.35 217.01-12.29 217.15-11.23 217.42-10.05 217.69-8.86 218.25-8.07 218.81-7.28 219.52-7.28L219.52-7.28Q222.23-7.28 222.23-14.62ZM271.71-24.32L271.71-24.32Q276.25-30.25 280.77-30.25 285.29-30.25 288.73-26.9L288.73-26.9Q290.41-25.24 291-23.22L291-23.22 291.17-22.56Q291.83-20.26 291.83-19.71 291.83-19.17 291.73-18.82L291.73-18.82Q291.9-18.68 291.9-18.38L291.9-18.38 291.85-17.43Q291.9-15.67 291.9-14.97L291.9-14.97 291.9 0.02 277.11 0.02 277.08-14.33 277.11-14.87Q277.11-18.41 275.13-18.41L275.13-18.41Q272.91-18.41 272.91-14.5L272.91-14.5 272.96-12.82 272.96 0 266.17 0.02 259.41 0.02 259.38-13.09 259.43-14.67Q259.43-17.85 257.48-18.43L257.48-18.43Q255.18-18.31 255.18-14.89L255.18-14.89 255.23-13.43 255.23 0 247.37 0.02 239.56 0.02 239.53-14.65 239.53-29.22 246.22-29.25 252.94-29.25 253.11-28.66Q254.01-25.46 254.47-23.68L254.47-23.68Q256.06-26.42 258.17-28.33 260.29-30.25 262.38-30.25L262.38-30.25Q263.04-30.25 263.7-30.25L263.7-30.25Q265.83-30.25 268.05-28.5 270.27-26.76 271.71-24.32ZM293.9-10.72L293.9-29.2 300.2-29.22 306.57-29.22Q307.04-28.27 307.4-27.61L307.4-27.61 308.33-25.9Q310.92-28.27 313.1-29.26 315.29-30.25 317.88-30.25 320.46-30.25 322.51-29.3L322.51-29.3Q326.13-27.61 327.87-23.58 329.62-19.56 329.62-14.99L329.62-14.99Q329.62-14.4 329.52-13.92L329.52-13.92Q329.13-9.67 328.04-6.87 326.96-4.08 324.22-1.56L324.22-1.56 324.22-1.59Q321.78 0.51 319.58 0.51L319.58 0.51Q318.95 0.81 318.3 0.81 317.66 0.81 316.5 0.65 315.34 0.49 314.97 0.29L314.97 0.29Q311.58-0.44 309.48-2.59L309.48-2.59 308.55-2.56Q308.77-1.17 308.77-0.17L308.77-0.17 308.74 0.27 308.74 7.74 301.32 7.76 293.93 7.76 293.9-10.72ZM314.34-12.28L314.34-12.28 314.46-13.82Q314.43-13.84 314.43-13.92 314.43-13.99 314.46-14.04L314.46-14.04 314.46-14.45Q314.46-15.65 314.36-16.43L314.36-16.43 314.21-17.46Q314.16-17.7 313.94-18.95L313.94-18.95Q313.36-22.09 311.48-22.09L311.48-22.09Q308.45-22.09 308.45-14.14L308.45-14.14Q308.45-9.77 309.79-7.76L309.79-7.76Q310.43-6.84 311.36-6.62L311.36-6.62Q313.9-6.84 314.34-12.28ZM343.61-16.04L344.73-16.21 344.97-16.19 345.56-16.19Q346.39-16.19 346.85-16.31L346.85-16.31 348.17-16.48Q351.54-16.72 352.22-18.29L352.22-18.29Q352.57-19.07 352.57-20.26L352.57-20.26Q352.42-20.51 352.42-21.19 352.42-21.88 351.72-22.63 351.03-23.39 350.08-23.39L350.08-23.39 349.95-23.39Q347.61-23.39 347.61-19.41L347.61-19.41Q347.49-19.21 347.21-19.26 346.93-19.31 345.85-19.31L345.85-19.31 333.25-19.31Q333.38-21 334.13-22.95L334.13-22.95Q335.57-26.71 339.71-28.36 343.85-30 347.93-30.15L347.93-30.15 349.39-30.22 350.17-30.3Q350.32-30.3 350.47-30.22L350.47-30.22 350.78-30.22 351.88-30.27Q352.22-30.27 353.42-30.1L353.42-30.1 354.13-30Q354.3-29.98 354.67-29.98 355.03-29.98 356.2-29.82 357.37-29.66 359.13-28.98L359.13-28.98Q365.09-26.64 366.36-20L366.36-20Q366.9-17.19 366.9-13.77L366.9-13.77Q367.07-13.21 367.07-12.74L367.07-12.74 366.95-11.06 366.95-8.23Q366.97-8.18 366.97-7.81L366.97-7.81 366.92-6.15 366.92-5.93Q366.99-5.81 366.99-5.59L366.99-5.59 366.97-5.37 366.97-4.86Q366.97-2.54 367.68-0.46L367.68-0.46 367.92 0.07 356.89 0.07 356.01 0.05Q355.03 0.05 354.52 0.07L354.52 0.07Q353.74-1.39 353.03-3.93L353.03-3.93Q352.71-3.27 351.94-2.43 351.17-1.59 350.81-1.59L350.81-1.59Q347.19 0.17 345.31 0.42L345.31 0.42Q342.53 0.88 342.32 0.88 342.12 0.88 342.12 0.88L342.12 0.88Q336.28 0.88 333.3-3.17L333.3-3.17Q331.81-5.25 331.81-7.98L331.81-7.98Q331.81-13.92 337.33-15.26L337.33-15.26Q338.75-15.6 342.8-15.97L342.8-15.97 343.61-16.04ZM352.74-9.81L352.74-10.55 352.76-11.33Q352.76-12.55 352.57-13.67L352.57-13.67Q352.03-13.38 351-13.01 349.98-12.65 349.37-12.39 348.76-12.13 348.26-11.49 347.76-10.84 347.76-9.72 347.76-8.59 348.48-7.67 349.2-6.74 350.05-6.74L350.05-6.74Q351.88-6.74 352.66-8.06L352.66-8.06 352.71-8.3 352.74-9.81ZM370.63-29.22L377.12-29.2 383.67-29.22Q383.79-28.71 384.11-27.61 384.42-26.51 384.72-25.42L384.72-25.42 385.18-23.58Q386.16-26.05 386.38-26.32L386.38-26.32 386.77-26.81Q389.23-30.27 394.34-30.27L394.34-30.27Q396.75-30.27 398.94-28.82 401.12-27.37 402.34-25.04 403.56-22.71 403.56-20.12L403.56-20.12Q403.56-19.82 403.49-19.65L403.49-19.65 403.49-4.64 403.52 0.02 389.23 0.02 389.18-12.18 389.28-14.67Q389.28-18.41 387.3-18.41L387.3-18.41Q385.18-18.41 385.18-14.87L385.18-14.87Q385.18-14.09 385.2-13.79L385.2-13.79 385.2-13.43 385.23-13.01 385.23 0 377.95 0.02 370.65 0.02 370.63-14.62 370.63-29.22ZM410.86 3.37L410.86 3.39Q413.13 2.61 413.13-1.03L413.13-1.03Q413.13-2.39 412.2-5.35L412.2-5.35 411.81-6.57Q408.96-15.72 404.66-29.17L404.66-29.17 412.11-29.17 419.45-29.2 420.55-22.88Q420.68-21.83 420.94-19.9 421.21-17.97 421.33-16.99L421.33-16.99 423.7-29.2 438.13-29.2 438.13-29.25 438.62-29.2 438.5-28.71 438.45-28.71 432-10.84Q431-8.33 430.51-6.63 430.03-4.93 429.42-3.44 428.81-1.95 427.28 2.4 425.75 6.76 424.36 9.25L424.36 9.25Q422.16 12.99 417.36 13.31L417.36 13.31 415.06 13.33 413.08 13.43Q412.52 13.43 412.13 13.35L412.13 13.35Q411.96 13.4 411.62 13.4L411.62 13.4 410.13 13.33 409.18 13.4Q409.05 13.4 408.57 13.35L408.57 13.35Q407.54 13.35 406.52 13.35L406.52 13.35 406.05 12.11Q406 11.96 406 11.73 406 11.5 406.03 11.4L406.03 11.4 406.03 11.23 406.05 10.99 406.05 8.2Q406.05 5.32 406.03 3.93L406.03 3.93Q406.37 3.88 406.77 3.88 407.17 3.88 407.42 3.96L407.42 3.96Q407.76 3.88 408.32 3.88L408.32 3.88 408.52 3.88Q408.71 3.76 409.4 3.66 410.08 3.56 410.45 3.47 410.81 3.37 410.86 3.37L410.86 3.37Z" opacity="1" transform="matrix(1,0,0,1,0,0)" fill="#ec9131" class="wordmark-text-0" data-fill-palette-color="primary" id="text-0"></path></svg></g></svg></g></svg></g></svg></g></svg></g><defs></defs></svg><rect width="395.52" height="47.31884843732497" fill="none" stroke="none" visibility="hidden"></rect></g></svg></g></svg>